<svg xmlns="http://www.w3.org/2000/svg" viewBox="0 0 1440 320">
  <path fill="#81e6d9" fill-opacity="0.3" d="M0,64L21.8,74.7C43.6,85,87,107,131,122.7C174.5,139,218,149,262,133.3C305.5,117,349,75,393,80C436.4,85,480,139,524,138.7C567.3,139,611,85,655,96C698.2,107,742,181,785,208C829.1,235,873,213,916,218.7C960,224,1004,256,1047,277.3C1090.9,299,1135,309,1178,304C1221.8,299,1265,277,1309,234.7C1352.7,192,1396,128,1418,96L1440,64L1440,0L1418.2,0C1396.4,0,1353,0,1309,0C1265.5,0,1222,0,1178,0C1134.5,0,1091,0,1047,0C1003.6,0,960,0,916,0C872.7,0,829,0,785,0C741.8,0,698,0,655,0C610.9,0,567,0,524,0C480,0,436,0,393,0C349.1,0,305,0,262,0C218.2,0,175,0,131,0C87.3,0,44,0,22,0L0,0Z"></path>
</svg>